<svg width="41" height="40" viewBox="0 0 41 40" fill="none" xmlns="http://www.w3.org/2000/svg">
<g clip-path="url(#clip0_1_50623)">
<path d="M39.1823 6.65827C38.9641 6.09642 38.491 5.68884 37.9168 5.56798C37.33 5.44408 36.7169 5.63331 36.2769 6.07335L32.1742 10.176L30.1709 8.17268L34.5344 3.80919C34.9886 3.35493 35.1836 2.72232 35.0562 2.1169C34.9316 1.525 34.5111 1.03734 33.9317 0.812302C30.1236 -0.666996 25.7968 0.243622 22.9085 3.13177C21.3878 4.65247 20.395 6.57259 20.0363 8.68574C19.9597 9.04515 19.8854 9.42686 19.8069 9.83055C19.3481 12.1887 18.7772 15.1235 17.1031 16.7974L2.11463 31.786C0.263874 33.6367 0.263874 36.6483 2.11463 38.4991C3.04008 39.4245 4.25566 39.8872 5.47125 39.8872C6.68675 39.8872 7.90241 39.4245 8.82779 38.4991L23.8162 23.5106C25.4902 21.8366 28.425 21.2658 30.7831 20.8069C31.1869 20.7284 31.5685 20.6541 31.928 20.5775C34.0412 20.2188 35.9613 19.2259 37.482 17.7052C37.9307 17.2565 38.0606 16.6474 37.8747 16.1059C39.9111 13.4085 40.4179 9.83964 39.1823 6.65827ZM37.3754 7.17179C37.4439 7.10344 37.5246 7.07283 37.5969 7.08821C37.659 7.10126 37.7051 7.14585 37.7342 7.22065C38.7273 9.77773 38.3841 12.6322 36.8588 14.8606L33.2727 11.2745L37.3754 7.17179ZM36.3834 16.6068C35.0885 17.9017 33.4529 18.7459 31.6534 19.0484C31.642 19.0502 31.6308 19.0524 31.6196 19.0548C31.2694 19.1297 30.8891 19.2036 30.4864 19.282C27.9206 19.7812 24.7273 20.4024 22.7175 22.4121L7.72927 37.4006C6.48432 38.6456 4.4584 38.6456 3.21323 37.4005C1.96821 36.1554 1.96821 34.1296 3.21323 32.8845L18.2017 17.896C20.2115 15.8863 20.8327 12.6931 21.3318 10.1272C21.4102 9.72452 21.4842 9.34421 21.559 8.99404C21.5615 8.98278 21.5636 8.97159 21.5656 8.96017C21.8678 7.16084 22.7121 5.52518 24.0071 4.23021C25.6795 2.55773 27.9195 1.66629 30.2012 1.66629C31.2659 1.66629 32.3401 1.86057 33.3693 2.2603C33.4629 2.29665 33.519 2.356 33.536 2.4367C33.5552 2.52782 33.5186 2.62764 33.4358 2.71036L28.5231 7.6231C28.2198 7.92644 28.2198 8.41829 28.5231 8.7217L36.3877 16.5863C36.3905 16.589 36.3929 16.5916 36.395 16.594C36.392 16.5979 36.3881 16.6021 36.3834 16.6068Z" fill="white"/>
<path d="M27.4243 9.82054C27.2786 9.67489 27.0811 9.59302 26.8751 9.59302C26.6691 9.59302 26.4715 9.67489 26.3258 9.82054L24.1289 12.0176C23.8255 12.3209 23.8255 12.8128 24.1289 13.1162L27.2307 16.2181C27.3763 16.3637 27.574 16.4456 27.78 16.4456C27.986 16.4456 28.1836 16.3637 28.3292 16.2181L30.5263 14.021C30.8296 13.7177 30.8296 13.2259 30.5263 12.9224L27.4243 9.82054ZM27.7799 14.5702L25.7766 12.5668L26.8751 11.4683L28.8784 13.4716L27.7799 14.5702Z" fill="white"/>
<path d="M6.02037 34.5931C5.71696 34.2897 5.22533 34.2901 4.922 34.5933C4.61867 34.8967 4.61882 35.3887 4.92216 35.6921C5.07386 35.8437 5.27264 35.9196 5.47142 35.9196C5.6702 35.9196 5.86897 35.8437 6.02068 35.6921C6.32401 35.3888 6.32401 34.8969 6.02068 34.5935L6.02037 34.5931Z" fill="white"/>
<path d="M19.9105 19.6051L7.39376 32.1218C7.09043 32.4251 7.09043 32.917 7.39376 33.2204C7.54546 33.372 7.74424 33.4479 7.94302 33.4479C8.1418 33.4479 8.34057 33.372 8.49228 33.2204L21.0091 20.7036C21.3124 20.4003 21.3124 19.9084 21.0091 19.605C20.7057 19.3017 20.214 19.3017 19.9105 19.6051Z" fill="white"/>
</g>
<defs>
<clipPath id="clip0_1_50623">
<rect width="39.7744" height="39.7744" fill="white" transform="translate(0.400635 0.112823)"/>
</clipPath>
</defs>
</svg>
